<svg version="1.2" xmlns="http://www.w3.org/2000/svg" viewBox="0 0 2435 2553" width="64px" height="64px">
	<style>
		.s0 { fill: #7211f3 } 
	</style>
	<path class="s0" d="m1193.59 308.85c44.78-3.28 90.23 2.91 132.45 18.21 63.22 22.68 118.6 66.14 156.17 121.75 35.31 51.89 54.52 114.43 54.8 177.17q0.04 103.03 0.01 206.05c-0.05 8.23-4.6 15.93-11.06 20.83-9.08 7.01-22.85 7.13-32.06 0.32-6.25-4.48-10.41-11.59-11.87-19.05v-171.13c-0.14-24.41 0.8-48.93-2.32-73.21-1.44-10.3-2.51-20.77-5.79-30.69-6.08-20.29-14.32-39.93-24.38-58.56-7.37-13.3-15.15-26.5-25.17-38-12.19-14.69-25.64-28.34-40.32-40.55-15.52-13.62-33.7-23.77-52.1-32.92-17.02-8.24-34.77-14.99-53-19.99-36.81-7.32-74.92-7.97-111.99-2.13-16.5 2.18-32.13 8.31-47.53 14.35-19.87 8.14-38.87 18.42-56.64 30.48-23.23 17.48-43.99 38.24-61.57 61.4-16.84 24.56-30.02 51.59-39.26 79.9-2.01 6.6-4.29 13.16-5.19 20.04-4.15 23.04-5.09 46.5-4.74 69.86v178.04c-0.21 6.24 0.73 12.7-1.36 18.73-3.18 8.92-11.13 16.08-20.44 18.01-5.16 0.36-10.66 0.85-15.49-1.37-8.47-3.4-15.16-11.16-16.92-20.16-0.88-3.67-0.7-7.47-0.79-11.2v-168.04c0.12-20.59-0.63-41.26 1.66-61.77 4.28-42.03 16.97-83.19 37.21-120.27 32.32-59.45 83.99-108.16 145.31-136.81 35.25-16.52 73.55-26.47 112.38-29.29z"/>
	<path class="s0" d="m1194.62 784.9c42.18-3.38 85.12 2.88 124.54 18.27 32.59 12.65 62.71 31.56 88.38 55.3 10.49 9.85 20.46 20.26 30.7 30.37 142.31 142.32 284.64 284.61 426.93 426.94 38.65 38.64 65.58 88.81 76.26 142.43 9.36 46.24 6.87 94.82-7.25 139.84-10.46 33.59-27.38 65.13-49.52 92.46-9.42 11.85-20.21 22.5-30.93 33.15q-216.51 216.51-433.01 433.02c-20.88 21.62-44.93 40.25-71.5 54.34-39.88 21.27-84.95 32.69-130.15 32.95-52.65 0.47-105.35-14.21-150.06-42.06-15.57-9.65-30.15-20.86-43.55-33.33-6.19-5.82-12.12-11.9-18.14-17.88q-204.74-204.75-409.48-409.49c-10.66-10.7-21.41-21.31-31.99-32.07-23.71-24.51-42.94-53.36-56.3-84.74-16.32-38.15-23.95-79.97-22.31-121.42 1.61-42.11 12.82-83.83 32.66-121.01 13.46-25.37 30.97-48.53 51.42-68.67q221.01-221 442-442c20.4-21.13 43.82-39.39 69.68-53.35 34.34-18.69 72.65-29.97 111.62-33.05zm5.9 345.92c-34.39 3.24-67.75 17.14-94.08 39.53-26.73 22.36-46.47 53.03-55.4 86.75-10.31 37.58-7.21 78.64 8.51 114.3 12.48 28.58 33.02 53.49 58.46 71.5 5.84 5.73 10.66 12.59 14.39 19.88 2.54 5.35 4.16 11.32 3.44 17.3-1.68 11.6-3.48 23.18-4.93 34.82q-21.46 146.49-42.92 293c-0.86 6.02-2 12.04-2.03 18.15-0.47 19.46 7.61 38.85 21.54 52.41 13.04 12.92 31.21 20.46 49.57 20.54 39.97 0.01 79.94 0.03 119.91-0.01 23.86-0.08 47.03-13.19 59.64-33.4 9.16-14.27 12.87-31.85 10.43-48.61q-15.05-102.87-30.13-205.75c-6.07-42.09-12.54-84.13-18.28-126.26-2.69-10.11 0.97-20.47 6.63-28.83 3.43-5.05 6.6-10.6 11.82-14.03 31.8-22.63 55.48-56.41 65.74-94.08 10.68-38.41 7.46-80.47-9.01-116.78-14.25-31.72-38.46-58.8-68.24-76.72-31.27-18.91-68.7-27.28-105.06-23.71zm-441.16 157.65c-20.57 0.71-41.21 3.45-60.72 10.22-21.56 7.54-42.33 17.67-60.92 31.01-27.69 20.14-51.43 46.03-67.91 76.13-11.71 21.9-21.08 45.37-24.7 70.06-3.28 22.54-3.52 45.49-0.95 68.11 2.46 22.95 9.84 45.12 19.88 65.82 15.28 32.58 39.13 60.73 67.4 82.81 16.87 13.12 35.82 23.38 55.61 31.35 16.96 6.97 34.94 11.46 53.2 13.24 21.78 2.17 43.84 1.84 65.49-1.4 20.75-3.11 40.67-10.3 59.45-19.49 35.01-16.79 64.98-43.31 87.42-74.86 12.88-18.39 22.75-38.81 30.04-60.02 7.49-21.99 9.88-45.33 10.04-68.44-0.26-21.21-2.26-42.58-8.59-62.91-11.28-35.78-30.68-69.25-57.65-95.47-26.04-26.8-59.22-46.13-94.71-57.45-23.35-7.31-48.04-9.24-72.38-8.71zm898.96 0c-6.83 0.56-13.7 0.53-20.49 1.46-31.46 3.11-61.43 15.2-88.39 31.33-16.04 9.82-30.71 21.81-43.78 35.32-25.8 25.7-44.39 58.12-55.45 92.7-6.71 21.24-8.74 43.62-8.84 65.79 0.35 16.44 1.47 32.96 5.2 49.03 4.17 18.55 11.49 36.25 20.16 53.12 14.78 28.66 36.37 53.51 61.46 73.64 19.9 15.92 42.79 27.8 66.69 36.49 16.75 5.97 34.37 9.42 52.11 10.53 30.64 2.07 62.09-0.08 91.19-10.53 22.57-8.22 44.26-19.25 63.35-33.91 30.79-23.67 56.27-54.69 71.62-90.5 0.44-8.11-2.86-16.57-8.93-22.07-6.78-7.25-17.98-10.86-27.45-7.15-9.17 2.99-15.32 11.13-19.67 19.33-15.1 27.05-37.04 50.35-63.51 66.52-22.8 13.79-48.85 22.79-75.61 23.59-18.01 1.07-36.3-0.12-53.78-4.73-38.4-10.28-72.34-34.85-95.53-66.96-16.05-22.51-27.11-48.88-30.13-76.46-1.82-19.97-1.5-40.33 3.09-59.92 10.44-43.52 39.29-81.74 76.99-105.51 14.95-8.81 30.87-16.22 47.78-20.37 18.84-4.81 38.46-5.1 57.77-3.91 30.26 2.57 59.3 14.76 83.49 32.94 20.75 15.71 37.93 35.97 50.42 58.79 4.36 8.97 12.17 16.72 22.15 18.92 5.68 1.78 11.67-0.26 16.78-2.82 10.73-5.49 17.87-17.9 15.73-29.99-10.9-24.94-26.54-47.81-45.81-67.04-17.39-17.91-37.68-33.08-60.1-44.12-19.11-9.6-39.42-17.21-60.61-20.56-15.82-2.52-31.9-3.36-47.9-2.95z"/>
	<path class="s0" d="m744.56 1345.72c23.48-2.4 47.65-1.65 70.35 5.32 54.01 16.43 98.53 60.9 115.02 114.9 6.92 22.28 7.68 46 5.58 69.08-4.32 38.42-23.71 74.41-51.5 100.99-28.61 27.63-67.07 46.01-107.12 47.24-22.3 1.18-45.05-1.15-66.06-9.05-53.19-19.33-95.84-66.02-109.17-121.15-3.75-16-4.72-32.59-3.87-48.97 0.6-19.35 5.15-38.53 13.06-56.18 13.87-31.96 37.88-59.23 67.18-77.94 20.13-12.61 42.84-21.5 66.53-24.24z"/>
</svg>
